<?xml version="1.0" encoding="utf-8"?>
<!-- Generator: Adobe Illustrator 19.2.1, SVG Export Plug-In . SVG Version: 6.00 Build 0)  -->
<svg version="1.1" xmlns="http://www.w3.org/2000/svg" xmlns:xlink="http://www.w3.org/1999/xlink" x="0px" y="0px" width="1400px"
	 height="980px" viewBox="0 0 1400 980" style="enable-background:new 0 0 1400 980;" xml:space="preserve">
<style type="text/css">
	.st0{fill:#FFFFFF;}
	.st1{fill:#E85375;}
	.st2{fill:#A8E0F9;}
	.st3{fill:#8CCAE6;}
	.st4{fill:#BDCFD9;}
	.st5{fill:#F285B5;}
	.st6{fill:#556BB2;}
	.st7{fill:#84C5E2;}
	.st8{fill:#FFDE6E;}
	.st9{fill:#F68B5C;}
	.st10{fill:#ECC565;}
	.st11{fill:#E5BD62;}
	.st12{fill:#FAAA63;}
	.st13{fill:#CF664A;}
	.st14{fill:#8CBDD4;}
	.st15{fill:#D1D3D4;}
	.st16{fill:#6DCFF6;}
</style>
<g id="Layer_2">
	<rect class="st0" width="1400" height="980"/>
</g>
<g id="Layer_1">
	<g>
		<circle class="st1" cx="309" cy="181.7" r="114"/>
		<path class="st2" d="M325.4,116.6c-1.8-2.4-5.2-2.8-7.6-1l-120,91.5c8.8,38.9,37.5,70.2,74.7,82.7l112.6-85.9
			c2.4-1.8,2.8-5.2,1-7.6L325.4,116.6z"/>
		<path class="st3" d="M203.8,202.9l-6,4.2c8.8,38.9,37.5,70.2,74.7,82.7l5.6-4.3C241.1,272.8,212.6,241.6,203.8,202.9z"/>
		<path class="st0" d="M207.3,233.2c2.1,4.1,4.3,8,6.9,11.7l132.3-100.8l-2.9-3.8l-2.2-2.9l-0.4-0.6l-2.6-3.5L207.3,233.2z"/>
		<path class="st4" d="M213.1,228.8l-5.9,4.5c2.1,4.1,4.3,8,6.9,11.7l5.8-4.4C217.5,236.8,215.1,232.8,213.1,228.8z"/>
		
			<ellipse transform="matrix(0.9881 -0.1535 0.1535 0.9881 -25.8589 56.8444)" class="st5" cx="355.2" cy="195.9" rx="9.5" ry="9.5"/>
		
			<ellipse transform="matrix(0.9881 -0.1535 0.1535 0.9881 -27.2864 55.2433)" class="st6" cx="344.1" cy="204.3" rx="9.5" ry="9.5"/>
	</g>
	<g>
		<circle class="st1" cx="309" cy="798.3" r="114"/>
		<path class="st2" d="M199,828.3c13.2,48.4,57.4,83.9,110,83.9c1.8,0,3.5,0,5.2-0.1l51.2-79.4l-94.9-76.3L199,828.3z M334.6,828.6
			c2.2-2.8,6.3-3.2,9-1c2.8,2.2,3.2,6.3,1,9c-2.2,2.8-6.3,3.2-9,1C332.9,835.4,332.4,831.3,334.6,828.6z M280.1,776.5
			c2.8,2.2,3.2,6.3,1,9c-2.2,2.8-6.3,3.2-9,1c-2.8-2.2-3.2-6.3-1-9C273.3,774.7,277.3,774.3,280.1,776.5z"/>
		<g>
			<path class="st7" d="M314.9,906.3c-52.5,0-96.8-35.6-110-83.9l-5.9,5.9c13.2,48.4,57.4,83.9,110,83.9c1.8,0,3.5,0,5.2-0.1
				l3.8-5.8C316.9,906.3,315.9,906.3,314.9,906.3z"/>
		</g>
		<path class="st8" d="M342,834.5l-4.7-3.8l27.5-34.3c6.3-7.9,9.2-17.7,8.1-27.7c-1.1-10-6-19-13.9-25.3c-7.9-6.3-17.7-9.2-27.7-8.1
			c-10,1.1-19,6-25.3,13.9l-25.8,32.1l-4.7-3.8l25.8-32.1c7.3-9.1,17.8-14.8,29.4-16.1c11.6-1.3,23.1,2.1,32.2,9.4
			c9.1,7.3,14.8,17.8,16.1,29.4c1.3,11.6-2.1,23.1-9.4,32.2L342,834.5z"/>
	</g>
	<g>
		<circle class="st1" cx="1091" cy="181.7" r="114"/>
		<path class="st2" d="M984.4,222.1c10.4,27.4,31,49.8,57.2,62.4l95.7-81.8l-1.1-54.7l-53.9-9.6L984.4,222.1z"/>
		<path class="st7" d="M1082.3,138.4l-37.3,31.9l-60.6,51.8c10.4,27.4,31,49.8,57.2,62.4l6.4-5.5c-26.1-13.3-47.4-35.1-57.1-62.4
			l91.5-78.3L1082.3,138.4z"/>
		
			<ellipse transform="matrix(0.7601 -0.6498 0.6498 0.7601 154.6624 761.7313)" class="st1" cx="1108.9" cy="171.4" rx="10.2" ry="10.2"/>
		<g>
			
				<rect x="1026.4" y="204.7" transform="matrix(0.7648 -0.6443 0.6443 0.7648 88.6799 721.1504)" class="st0" width="11.2" height="68.9"/>
			
				<rect x="1043.1" y="192.2" transform="matrix(0.7648 -0.6443 0.6443 0.7648 100.2459 727.7832)" class="st0" width="7.6" height="68.9"/>
			
				<rect x="1062.7" y="177.8" transform="matrix(0.7648 -0.6443 0.6443 0.7648 113.8658 736.4035)" class="st0" width="5.6" height="68.9"/>
		</g>
		<path class="st8" d="M1177,126.9c-2.1-6.1-5.6-9.7-10.6-10.6c-8.4-1.7-20.6,4.3-36.2,17.8c-4.3,3.7-8.2,7.5-11.5,10.8l4.1,0.7
			c2.9-2.8,6.1-5.9,9.6-8.9c14.6-12.6,26.1-18.5,33.3-17.1c3.8,0.7,6.4,3.5,8.1,8.4c1.4,4,1,7.8-1.2,11.6
			c-10.6,18.3-58.2,27.9-58.7,28l0.7,3.4c2-0.4,49.6-10,61-29.6C1178.2,136.7,1178.7,131.8,1177,126.9z"/>
	</g>
	<g>
		<circle class="st1" cx="700" cy="490" r="114"/>
		<path class="st0" d="M591,456.6c0,0.1,0,0.2-0.1,0.2c-0.2,0.5-0.3,1.1-0.5,1.6c0,0,0,0,0,0c-0.3,1.2-0.7,2.4-1,3.6c0,0,0,0,0,0
			l8,77.8c1.8,3.7,3.7,7.2,5.9,10.6c1-0.4,1.9-0.5,2.5,0.5l-11-96.2l-3.4,0.1c0,0,0,0,0,0C591.3,455.5,591.2,456,591,456.6z"/>
		<polygon class="st0" points="699.9,556.5 692.8,555.7 711.4,454.7 718.5,455.4 		"/>
		<polygon class="st0" points="632,556.3 623.6,455.2 631,454.9 639.4,555.9 		"/>
		<rect x="664.3" y="455" class="st0" width="7.5" height="101.1"/>
		<path class="st0" d="M586,489.7h157.7v-4H586.1C586,487,586,488.4,586,489.7z"/>
		<path class="st0" d="M590.4,521.3h145.4v-4H589.3C589.6,518.6,590,520,590.4,521.3z"/>
		<path class="st2" d="M589.8,460.7h159.1l-23.7,89l-122.8-0.8c2.1,3.5,4.4,6.8,6.8,10h119.7L757,452.2H592.4
			C591.4,455,590.6,457.8,589.8,460.7z"/>
		<path class="st2" d="M776.5,427.7c-1.2-1.9-2.6-3.8-3.9-5.6h-12.8L724,555.4l7.9,1.5l34.7-129.1H776.5z"/>
		<circle class="st8" cx="726" cy="558.3" r="19"/>
		<circle class="st9" cx="726" cy="558.3" r="11.2"/>
		<path class="st8" d="M786.9,433.6h-18v-11.5h18c3.2,0,5.8,2.6,5.8,5.8l0,0C792.7,431.1,790.1,433.6,786.9,433.6z"/>
	</g>
	<g>
		<circle class="st1" cx="700" cy="181.7" r="114"/>
		<path class="st8" d="M641.7,279.7c17.1,10.2,37,16,58.3,16c21.4,0,41.5-5.9,58.6-16.2l4-100.7H637.4L641.7,279.7z"/>
		<path class="st10" d="M758.6,271.6c-17.1,10.3-37.2,16.2-58.6,16.2c-21.3,0-41.3-5.9-58.3-16l-3.9-92.9h-0.3l4.3,100.8
			c17.1,10.2,37,16,58.3,16c21.4,0,41.5-5.9,58.6-16.2l4-100.7h-0.3L758.6,271.6z"/>
		<rect x="622.5" y="156.4" class="st8" width="155.1" height="22.4"/>
		<polygon class="st11" points="762.2,188.9 762.6,178.8 637.4,178.8 637.8,188.9 		"/>
		<path class="st12" d="M662.3,107.6c-26.8,18.4,35.2,52.2,35.2,52.2S700.5,81.4,662.3,107.6z M690.5,150.7c0,0-33.7-18.4-19.1-28.4
			C692.2,108.1,690.5,150.7,690.5,150.7z"/>
		<path class="st12" d="M737.5,99.8c-17-5.8-40.9,57.5-40.9,57.5C724.6,155.1,754.5,105.7,737.5,99.8z M707,148
			c0,0,12.2-31.5,20.9-28.6S721.4,146.8,707,148z"/>
		<path class="st9" d="M700,295.7c2.6,0,5.1-0.1,7.6-0.3V178.8h-15.3v116.6C694.9,295.6,697.4,295.7,700,295.7z"/>
		<rect x="692.4" y="178.8" class="st13" width="15.3" height="10.1"/>
		<rect x="690.5" y="156.4" class="st9" width="18.9" height="22.4"/>
		<path class="st13" d="M703.6,295.7c0.1,0,0.1,0,0.2,0c1.3,0,2.5-0.1,3.8-0.2c0,0,0,0,0,0v-7.9c-2.5,0.2-5.1,0.3-7.6,0.3
			s-5.1-0.1-7.6-0.3v7.9c0,0,0,0,0,0c1.3,0.1,2.5,0.1,3.8,0.2c0.1,0,0.1,0,0.2,0c0.6,0,1.1,0,1.7,0c0.6,0,1.3,0,1.9,0
			c0.6,0,1.3,0,1.9,0C702.5,295.7,703.1,295.7,703.6,295.7z"/>
	</g>
	<g>
		<circle class="st1" cx="309" cy="490" r="114"/>
		<path class="st8" d="M257.4,591.7c15.5,7.9,33,12.3,51.5,12.3s36.1-4.4,51.5-12.3l2.4-112.3H255L257.4,591.7z"/>
		<path class="st10" d="M360.5,581.4c-15.5,7.9-33,12.3-51.5,12.3s-36.1-4.4-51.5-12.3l-2.2-102H255l2.4,112.3
			c15.5,7.9,33,12.3,51.5,12.3s36.1-4.4,51.5-12.3l2.4-112.3h-0.2L360.5,581.4z"/>
		<rect x="268.7" y="489.1" class="st2" width="80.6" height="25"/>
		<rect x="268.7" y="509.3" class="st14" width="80.6" height="4.8"/>
		<polygon class="st0" points="350.2,456.2 343.3,451.5 336.5,456.2 329.6,451.5 322.7,456.2 315.8,451.5 309,456.2 302.1,451.5 
			295.2,456.2 288.3,451.5 281.5,456.2 274.6,451.5 267.7,456.2 261.1,452 261.1,479.4 356.8,479.4 356.8,452 		"/>
		<g>
			<circle class="st9" cx="274.4" cy="530.8" r="6.3"/>
			<circle class="st9" cx="309" cy="530.8" r="6.3"/>
			<circle class="st9" cx="343.5" cy="530.8" r="6.3"/>
		</g>
		<g>
			<circle class="st9" cx="274.4" cy="562.6" r="6.3"/>
			<circle class="st9" cx="309" cy="562.6" r="6.3"/>
			<circle class="st9" cx="343.5" cy="562.6" r="6.3"/>
		</g>
	</g>
	<g>
		<circle class="st1" cx="1091" cy="490" r="114"/>
		<g>
			<path class="st8" d="M1021.2,580.1c19.3,15,43.5,23.9,69.8,23.9s50.5-8.9,69.8-23.9v-75.7h-139.6V580.1z"/>
			<path class="st10" d="M1021.2,572.6v7.5c19.3,15,43.5,23.9,69.8,23.9s50.5-8.9,69.8-23.9v-7.5c-19.3,15-43.5,23.9-69.8,23.9
				S1040.5,587.6,1021.2,572.6z"/>
			<g>
				<polygon class="st0" points="1071.5,451.7 1052,451.7 1044.5,504.4 1067.8,504.4 				"/>
				<polygon class="st2" points="1091,451.7 1071.5,451.7 1067.8,504.4 1091,504.4 				"/>
				<polygon class="st0" points="1110.6,451.7 1091,451.7 1091,504.4 1114.3,504.4 				"/>
				<polygon class="st2" points="1130.1,451.7 1110.6,451.7 1114.3,504.4 1137.6,504.4 				"/>
				<polygon class="st0" points="1149,451.7 1130.1,451.7 1137.6,504.4 1160.9,504.4 				"/>
			</g>
			<polygon class="st2" points="1052,451.7 1033.1,451.7 1021.2,504.4 1044.5,504.4 			"/>
			<path class="st7" d="M1032.9,524.5L1032.9,524.5c-6.4,0-11.6-5.2-11.6-11.6v-8.5h23.3v8.5
				C1044.5,519.3,1039.3,524.5,1032.9,524.5z"/>
			<path class="st15" d="M1056.1,524.5L1056.1,524.5c-6.4,0-11.6-5.2-11.6-11.6v-8.5h23.3v8.5
				C1067.8,519.3,1062.6,524.5,1056.1,524.5z"/>
			<path class="st7" d="M1079.4,524.5L1079.4,524.5c-6.4,0-11.6-5.2-11.6-11.6v-8.5h23.3v8.5C1091,519.3,1085.8,524.5,1079.4,524.5z
				"/>
			<path class="st15" d="M1102.7,524.5L1102.7,524.5c-6.4,0-11.6-5.2-11.6-11.6v-8.5h23.3v8.5
				C1114.3,519.3,1109.1,524.5,1102.7,524.5z"/>
			<path class="st7" d="M1125.9,524.5L1125.9,524.5c-6.4,0-11.6-5.2-11.6-11.6v-8.5h23.3v8.5
				C1137.6,519.3,1132.4,524.5,1125.9,524.5z"/>
			<path class="st15" d="M1149.2,524.5L1149.2,524.5c-6.4,0-11.6-5.2-11.6-11.6v-8.5h23.3v8.5
				C1160.9,519.3,1155.6,524.5,1149.2,524.5z"/>
			<rect x="1083.4" y="530.8" class="st0" width="54.4" height="43.8"/>
			<rect x="1083.4" y="571" class="st15" width="54.4" height="3.6"/>
			<rect x="1098.6" y="554.5" class="st7" width="23.9" height="9.3"/>
			<polygon class="st7" points="1119.2,552.4 1111.4,542.8 1111.4,542.7 1111.3,542.7 1109.9,542.7 1109.7,542.7 1109.8,542.8 
				1102,552.4 1103.5,552.4 1110.6,543.7 1117.6,552.4 			"/>
			<circle class="st7" cx="1110.6" cy="543.7" r="1.9"/>
			<path class="st0" d="M1037.1,590.4c9.2,5,19.2,8.7,29.8,11v-53h-29.8V590.4z"/>
			<path class="st15" d="M1037.1,590.4c9.2,5,19.2,8.7,29.8,11v-7.7c-10.5-2.3-20.5-6-29.8-11V590.4z"/>
		</g>
	</g>
	<g>
		<circle class="st1" cx="700" cy="798.3" r="114"/>
		<path class="st8" d="M625.5,884.6c18.5,16,42.2,26.1,68.2,27.5h12.5c26.1-1.4,49.9-11.6,68.5-27.7l7.5-74.3H617.8L625.5,884.6z"/>
		<path class="st8" d="M625.5,884.5c20,17.3,46,27.7,74.5,27.7c28.6,0,54.8-10.5,74.8-27.9l7.4-73.9H617.8L625.5,884.5z"/>
		<rect x="612.3" y="800.1" class="st9" width="175.3" height="9.9"/>
		<polygon class="st0" points="776.5,800.1 704.9,758 704.7,758 695.3,758 695.1,758 623.5,800.1 636.2,800.1 700,762.7 
			763.8,800.1 		"/>
		<path class="st0" d="M723.5,909.8c2.4-0.5,4.8-1.1,7.2-1.7l3.7-98h-7.2L723.5,909.8z"/>
		<path class="st0" d="M748.6,901.4c2.7-1.3,5.4-2.7,8-4.2l9.4-87.2h-7.5L748.6,901.4z"/>
		<path class="st0" d="M696.4,912.2c1.2,0,2.4,0.1,3.6,0.1s2.4,0,3.6-0.1V810.4h-7.2V912.2z"/>
		<path class="st0" d="M669.3,908.1c2.4,0.7,4.7,1.2,7.2,1.7l-3.7-99.8h-7.2L669.3,908.1z"/>
		<path class="st0" d="M641.5,810.1H634l9.4,87.2c2.6,1.5,5.3,2.9,8,4.2L641.5,810.1z"/>
		<polygon class="st11" points="781.8,817.3 782.2,810.1 617.8,810.1 618.3,817.3 		"/>
		<g>
			<polygon class="st15" points="757.8,817.3 765.2,817.3 766,810.1 758.5,810.1 			"/>
			<polygon class="st15" points="727,817.3 734.1,817.3 734.4,810.1 727.2,810.1 			"/>
			<rect x="696.4" y="810.1" class="st15" width="7.2" height="7.2"/>
			<polygon class="st15" points="672.8,810.1 665.6,810.1 665.9,817.3 673,817.3 			"/>
			<polygon class="st15" points="641.5,810.1 634,810.1 634.8,817.3 642.2,817.3 			"/>
		</g>
		<circle class="st0" cx="700" cy="760" r="6.4"/>
	</g>
	<g>
		<circle class="st1" cx="1091" cy="798.3" r="114"/>
		<path class="st2" d="M977.4,807.3c3.6,46.5,35.1,85.1,77.8,99.2l119.7-68.1L1113.3,730L977.4,807.3z"/>
		<path class="st7" d="M984.2,803.5l-6.8,3.8c3.6,46.5,35.1,85.1,77.8,99.2l6.7-3.8C1019.3,888.5,987.8,849.9,984.2,803.5z"/>
		<path class="st0" d="M1155.6,793.9l-29.8,17c-8.6,4.9-19.6,1.9-24.5-6.7v0c-4.9-8.6-1.9-19.6,6.7-24.5l29.8-17L1155.6,793.9z"/>
		<path class="st8" d="M977.4,806.8c0,0.2,0,0.3,0,0.5l123.8-70.4l-16-19.6L977.4,806.8z"/>
		<path class="st9" d="M977.4,806.8l85.4-70.9l-9.7-13.4L977.4,806.8C977.4,806.8,977.4,806.8,977.4,806.8z"/>
		
			<ellipse transform="matrix(0.9873 -0.1587 0.1587 0.9873 -112.1179 187.2465)" class="st16" cx="1116.2" cy="795.6" rx="10.8" ry="10.8"/>
	</g>
</g>
</svg>
