<svg xmlns="http://www.w3.org/2000/svg" width="1400" height="980"><style>.st0{fill:#fff}.st1{fill:#e85375}.st2{fill:#a8e0f9}.st7{fill:#84c5e2}.st8{fill:#ffde6e}.st9{fill:#f68b5c}.st10{fill:#ecc565}.st11{fill:#e5bd62}.st12{fill:#faaa63}.st13{fill:#cf664a}.st15{fill:#d1d3d4}</style><path class="st0" d="M0 0h1400v980H0z" id="Layer_2"/><g id="Layer_1"><circle class="st1" cx="309" cy="181.7" r="114"/><path class="st2" d="M325.4 116.6c-1.8-2.4-5.2-2.8-7.6-1l-120 91.5c8.8 38.9 37.5 70.2 74.7 82.7l112.6-85.9c2.4-1.8 2.8-5.2 1-7.6l-60.7-79.7z"/><path d="M203.8 202.9l-6 4.2c8.8 38.9 37.5 70.2 74.7 82.7l5.6-4.3c-37-12.7-65.5-43.9-74.3-82.6z" fill="#8ccae6"/><path class="st0" d="M207.3 233.2c2.1 4.1 4.3 8 6.9 11.7l132.3-100.8-2.9-3.8-2.2-2.9-.4-.6-2.6-3.5-131.1 99.9z"/><path d="M213.1 228.8l-5.9 4.5c2.1 4.1 4.3 8 6.9 11.7l5.8-4.4c-2.4-3.8-4.8-7.8-6.8-11.8z" fill="#bdcfd9"/><circle transform="rotate(-8.83 355.197 195.887)" cx="355.2" cy="195.9" fill="#f285b5" r="9.5"/><circle transform="rotate(-8.83 344.115 204.331)" cx="344.1" cy="204.3" fill="#556bb2" r="9.5"/><circle class="st1" cx="309" cy="798.3" r="114"/><path class="st2" d="M199 828.3c13.2 48.4 57.4 83.9 110 83.9 1.8 0 3.5 0 5.2-.1l51.2-79.4-94.9-76.3-71.5 71.9zm135.6.3c2.2-2.8 6.3-3.2 9-1 2.8 2.2 3.2 6.3 1 9-2.2 2.8-6.3 3.2-9 1s-3.2-6.3-1-9zm-54.5-52.1c2.8 2.2 3.2 6.3 1 9-2.2 2.8-6.3 3.2-9 1-2.8-2.2-3.2-6.3-1-9 2.2-2.8 6.2-3.2 9-1z"/><path class="st7" d="M314.9 906.3c-52.5 0-96.8-35.6-110-83.9l-5.9 5.9c13.2 48.4 57.4 83.9 110 83.9 1.8 0 3.5 0 5.2-.1l3.8-5.8h-3.1z"/><path class="st8" d="M342 834.5l-4.7-3.8 27.5-34.3c6.3-7.9 9.2-17.7 8.1-27.7-1.1-10-6-19-13.9-25.3-7.9-6.3-17.7-9.2-27.7-8.1-10 1.1-19 6-25.3 13.9l-25.8 32.1-4.7-3.8 25.8-32.1c7.3-9.1 17.8-14.8 29.4-16.1 11.6-1.3 23.1 2.1 32.2 9.4 9.1 7.3 14.8 17.8 16.1 29.4 1.3 11.6-2.1 23.1-9.4 32.2L342 834.5z"/><circle class="st1" cx="1091" cy="181.7" r="114"/><path class="st2" d="M984.4 222.1c10.4 27.4 31 49.8 57.2 62.4l95.7-81.8-1.1-54.7-53.9-9.6-97.9 83.7z"/><path class="st7" d="M1082.3 138.4l-37.3 31.9-60.6 51.8c10.4 27.4 31 49.8 57.2 62.4l6.4-5.5c-26.1-13.3-47.4-35.1-57.1-62.4l91.5-78.3-.1.1z"/><circle transform="rotate(-40.527 1108.973 171.407)" class="st1" cx="1108.9" cy="171.4" r="10.2"/><path transform="rotate(-40.111 1031.998 239.09)" class="st0" d="M1026.4 204.7h11.2v68.9h-11.2z"/><path transform="rotate(-40.111 1046.865 226.566)" class="st0" d="M1043.1 192.2h7.6v68.9h-7.6z"/><path transform="rotate(-40.111 1065.48 212.223)" class="st0" d="M1062.7 177.8h5.6v68.9h-5.6z"/><path class="st8" d="M1177 126.9c-2.1-6.1-5.6-9.7-10.6-10.6-8.4-1.7-20.6 4.3-36.2 17.8-4.3 3.7-8.2 7.5-11.5 10.8l4.1.7c2.9-2.8 6.1-5.9 9.6-8.9 14.6-12.6 26.1-18.5 33.3-17.1 3.8.7 6.4 3.5 8.1 8.4 1.4 4 1 7.8-1.2 11.6-10.6 18.3-58.2 27.9-58.7 28l.7 3.4c2-.4 49.6-10 61-29.6 2.6-4.7 3.1-9.6 1.4-14.5z"/><circle class="st1" cx="700" cy="490" r="114"/><path class="st0" d="M591 456.6c0 .1 0 .2-.1.2-.2.5-.3 1.1-.5 1.6-.3 1.2-.7 2.4-1 3.6l8 77.8c1.8 3.7 3.7 7.2 5.9 10.6 1-.4 1.9-.5 2.5.5l-11-96.2-3.4.1c-.1.7-.2 1.2-.4 1.8zm108.9 99.9l-7.1-.8 18.6-101 7.1.7zm-67.9-.2l-8.4-101.1 7.4-.3 8.4 101zM664.3 455h7.5v101.1h-7.5z"/><path class="st0" d="M586 489.7h157.7v-4H586.1c-.1 1.3-.1 2.7-.1 4zm4.4 31.6h145.4v-4H589.3c.3 1.3.7 2.7 1.1 4z"/><path class="st2" d="M589.8 460.7h159.1l-23.7 89-122.8-.8c2.1 3.5 4.4 6.8 6.8 10h119.7L757 452.2H592.4c-1 2.8-1.8 5.6-2.6 8.5z"/><path class="st2" d="M776.5 427.7c-1.2-1.9-2.6-3.8-3.9-5.6h-12.8L724 555.4l7.9 1.5 34.7-129.1h9.9z"/><circle class="st8" cx="726" cy="558.3" r="19"/><circle class="st9" cx="726" cy="558.3" r="11.2"/><path class="st8" d="M786.9 433.6h-18v-11.5h18c3.2 0 5.8 2.6 5.8 5.8 0 3.2-2.6 5.7-5.8 5.7z"/><circle class="st1" cx="700" cy="181.7" r="114"/><path class="st8" d="M641.7 279.7c17.1 10.2 37 16 58.3 16 21.4 0 41.5-5.9 58.6-16.2l4-100.7H637.4l4.3 100.9z"/><path class="st10" d="M758.6 271.6c-17.1 10.3-37.2 16.2-58.6 16.2-21.3 0-41.3-5.9-58.3-16l-3.9-92.9h-.3l4.3 100.8c17.1 10.2 37 16 58.3 16 21.4 0 41.5-5.9 58.6-16.2l4-100.7h-.3l-3.8 92.8z"/><path class="st8" d="M622.5 156.4h155.1v22.4H622.5z"/><path class="st11" d="M762.2 188.9l.4-10.1H637.4l.4 10.1z"/><path class="st12" d="M662.3 107.6c-26.8 18.4 35.2 52.2 35.2 52.2s3-78.4-35.2-52.2zm28.2 43.1s-33.7-18.4-19.1-28.4c20.8-14.2 19.1 28.4 19.1 28.4z"/><path class="st12" d="M737.5 99.8c-17-5.8-40.9 57.5-40.9 57.5 28-2.2 57.9-51.6 40.9-57.5zM707 148s12.2-31.5 20.9-28.6-6.5 27.4-20.9 28.6z"/><path class="st9" d="M700 295.7c2.6 0 5.1-.1 7.6-.3V178.8h-15.3v116.6c2.6.2 5.1.3 7.7.3z"/><path class="st13" d="M692.4 178.8h15.3v10.1h-15.3z"/><path class="st9" d="M690.5 156.4h18.9v22.4h-18.9z"/><path class="st13" d="M703.6 295.7h.2c1.3 0 2.5-.1 3.8-.2v-7.9a96.53 96.53 0 01-15.2 0v7.9c1.3.1 2.5.1 3.8.2h7.4z"/><circle class="st1" cx="309" cy="490" r="114"/><path class="st8" d="M257.4 591.7c15.5 7.9 33 12.3 51.5 12.3s36.1-4.4 51.5-12.3l2.4-112.3H255l2.4 112.3z"/><path class="st10" d="M360.5 581.4c-15.5 7.9-33 12.3-51.5 12.3s-36.1-4.4-51.5-12.3l-2.2-102h-.3l2.4 112.3c15.5 7.9 33 12.3 51.5 12.3s36.1-4.4 51.5-12.3l2.4-112.3h-.2l-2.1 102z"/><path class="st2" d="M268.7 489.1h80.6v25h-80.6z"/><path fill="#8cbdd4" d="M268.7 509.3h80.6v4.8h-80.6z"/><path class="st0" d="M350.2 456.2l-6.9-4.7-6.8 4.7-6.9-4.7-6.9 4.7-6.9-4.7-6.8 4.7-6.9-4.7-6.9 4.7-6.9-4.7-6.8 4.7-6.9-4.7-6.9 4.7-6.6-4.2v27.4h95.7V452z"/><circle class="st9" cx="274.4" cy="530.8" r="6.3"/><circle class="st9" cx="309" cy="530.8" r="6.3"/><circle class="st9" cx="343.5" cy="530.8" r="6.3"/><circle class="st9" cx="274.4" cy="562.6" r="6.3"/><circle class="st9" cx="309" cy="562.6" r="6.3"/><circle class="st9" cx="343.5" cy="562.6" r="6.3"/><circle class="st1" cx="1091" cy="490" r="114"/><path class="st8" d="M1021.2 580.1c19.3 15 43.5 23.9 69.8 23.9s50.5-8.9 69.8-23.9v-75.7h-139.6v75.7z"/><path class="st10" d="M1021.2 572.6v7.5c19.3 15 43.5 23.9 69.8 23.9s50.5-8.9 69.8-23.9v-7.5c-19.3 15-43.5 23.9-69.8 23.9s-50.5-8.9-69.8-23.9z"/><path class="st0" d="M1071.5 451.7H1052l-7.5 52.7h23.3z"/><path class="st2" d="M1091 451.7h-19.5l-3.7 52.7h23.2z"/><path class="st0" d="M1110.6 451.7H1091v52.7h23.3z"/><path class="st2" d="M1130.1 451.7h-19.5l3.7 52.7h23.3z"/><path class="st0" d="M1149 451.7h-18.9l7.5 52.7h23.3z"/><path class="st2" d="M1052 451.7h-18.9l-11.9 52.7h23.3z"/><path class="st7" d="M1032.9 524.5c-6.4 0-11.6-5.2-11.6-11.6v-8.5h23.3v8.5c-.1 6.4-5.3 11.6-11.7 11.6z"/><path class="st15" d="M1056.1 524.5c-6.4 0-11.6-5.2-11.6-11.6v-8.5h23.3v8.5c0 6.4-5.2 11.6-11.7 11.6z"/><path class="st7" d="M1079.4 524.5c-6.4 0-11.6-5.2-11.6-11.6v-8.5h23.3v8.5c-.1 6.4-5.3 11.6-11.7 11.6z"/><path class="st15" d="M1102.7 524.5c-6.4 0-11.6-5.2-11.6-11.6v-8.5h23.3v8.5c-.1 6.4-5.3 11.6-11.7 11.6z"/><path class="st7" d="M1125.9 524.5c-6.4 0-11.6-5.2-11.6-11.6v-8.5h23.3v8.5c0 6.4-5.2 11.6-11.7 11.6z"/><path class="st15" d="M1149.2 524.5c-6.4 0-11.6-5.2-11.6-11.6v-8.5h23.3v8.5c0 6.4-5.3 11.6-11.7 11.6z"/><path class="st0" d="M1083.4 530.8h54.4v43.8h-54.4z"/><path class="st15" d="M1083.4 571h54.4v3.6h-54.4z"/><path class="st7" d="M1098.6 554.5h23.9v9.3h-23.9zm20.6-2.1l-7.8-9.6v-.1h-1.7l.1.1-7.8 9.6h1.5l7.1-8.7 7 8.7z"/><circle class="st7" cx="1110.6" cy="543.7" r="1.9"/><path class="st0" d="M1037.1 590.4c9.2 5 19.2 8.7 29.8 11v-53h-29.8v42z"/><path class="st15" d="M1037.1 590.4c9.2 5 19.2 8.7 29.8 11v-7.7c-10.5-2.3-20.5-6-29.8-11v7.7z"/><circle class="st1" cx="700" cy="798.3" r="114"/><path class="st8" d="M625.5 884.6c18.5 16 42.2 26.1 68.2 27.5h12.5c26.1-1.4 49.9-11.6 68.5-27.7l7.5-74.3H617.8l7.7 74.5z"/><path class="st8" d="M625.5 884.5c20 17.3 46 27.7 74.5 27.7 28.6 0 54.8-10.5 74.8-27.9l7.4-73.9H617.8l7.7 74.1z"/><path class="st9" d="M612.3 800.1h175.3v9.9H612.3z"/><path class="st0" d="M776.5 800.1L704.9 758h-9.8l-71.6 42.1h12.7l63.8-37.4 63.8 37.4zm-53 109.7c2.4-.5 4.8-1.1 7.2-1.7l3.7-98h-7.2l-3.7 99.7zm25.1-8.4c2.7-1.3 5.4-2.7 8-4.2L766 810h-7.5l-9.9 91.4zm-52.2 10.8c1.2 0 2.4.1 3.6.1s2.4 0 3.6-.1V810.4h-7.2v101.8zm-27.1-4.1c2.4.7 4.7 1.2 7.2 1.7l-3.7-99.8h-7.2l3.7 98.1zm-27.8-98H634l9.4 87.2c2.6 1.5 5.3 2.9 8 4.2l-9.9-91.4z"/><path class="st11" d="M781.8 817.3l.4-7.2H617.8l.5 7.2z"/><path class="st15" d="M757.8 817.3h7.4l.8-7.2h-7.5zm-30.8 0h7.1l.3-7.2h-7.2zm-30.6-7.2h7.2v7.2h-7.2zm-23.6 0h-7.2l.3 7.2h7.1zm-31.3 0H634l.8 7.2h7.4z"/><circle class="st0" cx="700" cy="760" r="6.4"/><circle class="st1" cx="1091" cy="798.3" r="114"/><path class="st2" d="M977.4 807.3c3.6 46.5 35.1 85.1 77.8 99.2l119.7-68.1-61.6-108.4-135.9 77.3z"/><path class="st7" d="M984.2 803.5l-6.8 3.8c3.6 46.5 35.1 85.1 77.8 99.2l6.7-3.8c-42.6-14.2-74.1-52.8-77.7-99.2z"/><path class="st0" d="M1155.6 793.9l-29.8 17c-8.6 4.9-19.6 1.9-24.5-6.7-4.9-8.6-1.9-19.6 6.7-24.5l29.8-17 17.8 31.2z"/><path class="st8" d="M977.4 806.8v.5l123.8-70.4-16-19.6-107.8 89.5z"/><path class="st9" d="M977.4 806.8l85.4-70.9-9.7-13.4-75.7 84.3z"/><circle transform="rotate(-9.132 1116.34 795.626)" cx="1116.2" cy="795.6" fill="#6dcff6" r="10.8"/></g></svg>